<?xml version="1.0" encoding="utf-8"?>
<!-- Generator: Adobe Illustrator 27.1.0, SVG Export Plug-In . SVG Version: 6.00 Build 0)  -->
<svg version="1.1" id="Layer_1" xmlns="http://www.w3.org/2000/svg" xmlns:xlink="http://www.w3.org/1999/xlink" x="0px" y="0px"
	 width="505.8px" height="125.6px" viewBox="0 0 505.8 125.6" style="enable-background:new 0 0 505.8 125.6;" xml:space="preserve"
	>
<style type="text/css">
	.st0{fill:#0073FF;stroke:#0073FF;stroke-miterlimit:10;}
	.st1{fill:#212121;}
</style>
<path class="st0" d="M12.4,38.1c0-6.8,5.4-11.7,11.7-11.7h53.2l-9,9c-1.4,1.4-1.4,4.1,0,5.4c1.4,1.4,4.1,1.4,5.4,0l15.3-15.3
	c0.9-0.5,1.4-1.8,1.4-3.2c0-0.9-0.5-2.3-1.4-2.7L73.7,3.8c-1.4-1.4-4.1-1.4-5.4,0c-1.4,1.4-1.4,4.1,0,5.4l9,9H24.1
	c-10.8,0-19.4,9-19.4,19.8v36.5c0,2.3,1.8,4.1,4.1,4.1s4.1-1.8,4.1-4.1L12.4,38.1L12.4,38.1z"/>
<path class="st0" d="M69.7,98.5H16.5l9-9c1.4-1.4,1.4-4.1,0-5.4c-1.4-1.4-4.1-1.4-5.4,0L4.8,99.4c-0.9,0.5-1.4,1.8-1.4,3.2
	c0,0.9,0.5,2.3,1.4,2.7L20.1,121c1.4,1.4,4.1,1.4,5.4,0c1.4-1.4,1.4-4.1,0-5.4l-9-9h53.2c10.8,0,19.4-9,19.4-19.8V50.2
	c0-2.3-1.8-4.1-4.1-4.1c-2.3,0-4.1,1.8-4.1,4.1v36.5C81.4,93.5,76,98.5,69.7,98.5z"/>
<g>
	<path class="st1" d="M121.5,87.7V35.4h21.2c4.1,0,7.2,0.5,9.5,1.8s4.5,2.7,5.9,5c1.4,1.8,1.8,4.5,1.8,6.8s-0.5,4.1-1.4,5.4
		c-0.9,1.4-1.8,2.7-3.2,3.6c-1.4,0.9-3.2,1.8-5,2.3v0.5c1.8,0,4.1,0.5,5.4,1.8c1.8,0.9,3.2,2.7,4.1,4.5c0.9,1.8,1.8,4.1,1.8,6.8
		c0,2.7-0.9,5.4-2.3,7.7c-1.4,2.3-3.6,4.1-5.9,5c-2.7,1.4-5.9,1.8-9.9,1.8h-22.1V87.7z M132.8,57h8.1c1.4,0,2.7-0.5,4.1-0.9
		c1.4-0.5,2.3-1.4,2.7-2.3c0.9-0.9,0.9-2.3,0.9-3.6c0-1.8-0.5-3.6-1.8-4.5c-1.4-0.9-3.2-1.4-5.4-1.4h-8.6V57z M132.8,78.6h9
		c3.2,0,5.4-0.5,6.8-1.8c1.4-1.4,2.3-2.7,2.3-5c0-1.4-0.5-2.7-0.9-4.1c-0.5-1.4-1.8-1.8-3.2-2.7c-1.4-0.5-2.7-0.9-4.5-0.9h-9.5V78.6
		z"/>
	<path class="st1" d="M180.6,88.6c-2.7,0-5-0.5-6.8-1.4c-1.8-0.9-3.6-2.3-4.5-4.1c-0.9-1.8-1.8-4.1-1.8-6.3c0-2.3,0.5-4.1,1.4-5.4
		c0.9-1.4,1.8-2.7,3.2-3.6c1.4-0.9,3.2-1.8,4.5-2.3s3.6-0.9,5.4-0.9c2.3-0.5,4.1-0.5,5.4-0.9c1.4,0,2.3-0.5,3.2-0.9
		c0.9-0.5,0.9-0.9,0.9-1.8l0,0c0-1.8-0.5-2.7-1.4-3.6c-0.9-0.9-2.3-1.4-4.5-1.4c-1.8,0-3.6,0.5-4.5,1.4c-1.4,0.9-1.8,1.8-2.3,3.2
		l-9.9-0.9c0.5-2.3,1.4-4.5,3.2-6.3c1.4-1.8,3.6-3.2,5.9-4.1c2.3-0.9,5-1.4,8.1-1.4c2.3,0,4.5,0.5,6.3,0.9c1.8,0.5,3.6,1.4,5.4,2.3
		c1.4,0.9,2.7,2.3,3.6,4.1c0.9,1.8,1.4,3.6,1.4,5.9v26.6h-10.4v-5.4h-0.5c-0.5,1.4-1.4,2.3-2.7,3.2c-0.9,0.9-2.3,1.8-3.6,2.3
		C184.2,88.1,182.4,88.6,180.6,88.6z M183.8,80.9c1.8,0,3.2-0.5,4.1-0.9c1.4-0.5,2.3-1.4,2.7-2.7c0.9-0.9,0.9-2.3,0.9-3.6v-4.1
		c-0.5,0-0.9,0.5-1.4,0.5s-1.4,0.5-1.8,0.5c-0.9,0-1.4,0.5-2.3,0.5s-1.4,0-1.8,0.5c-1.4,0-2.3,0.5-3.2,0.9s-1.8,0.9-2.3,1.8
		s-0.9,1.4-0.9,2.7s0.5,2.7,1.8,3.6C180.6,80.4,182,80.9,183.8,80.9z"/>
	<path class="st1" d="M243.7,59.7l-9.9,0.5c0-0.9-0.5-1.8-0.9-2.3s-1.4-1.4-2.3-1.8s-1.8-0.5-3.2-0.5c-1.8,0-3.2,0.5-4.1,0.9
		c-1.4,0.9-1.8,1.8-1.8,2.7c0,0.9,0.5,1.8,0.9,2.3c0.9,0.5,2.3,1.4,4.1,1.4l7.2,1.4c3.6,0.9,6.8,2.3,8.6,3.6
		c1.8,1.8,2.7,4.1,2.7,6.8c0,2.7-0.9,5-2.3,6.8c-1.4,1.8-3.6,3.6-6.3,4.5s-5.9,1.8-9,1.8c-5.4,0-9.5-0.9-12.6-3.2
		c-3.2-2.3-5-5-5.4-9l10.8-0.5c0.5,1.8,0.9,2.7,2.3,3.6c1.4,0.9,2.7,1.8,4.5,1.8c1.8,0,3.6-0.5,4.5-0.9c1.4-0.9,1.8-1.8,1.8-2.7
		s-0.5-1.8-1.4-2.3s-2.3-1.4-3.6-1.4l-6.8-1.8c-4.1-0.9-6.8-2.3-8.6-4.1c-1.8-1.8-2.7-4.5-2.7-7.2s0.9-4.5,2.3-6.3s3.2-3.2,5.9-4.1
		c2.7-0.9,5.4-1.4,9-1.4c5,0,9,0.9,11.7,3.2C241.5,52.9,243.3,56.1,243.7,59.7z"/>
	<path class="st1" d="M257.3,43c-1.8,0-3.2-0.5-4.1-1.8c-1.4-0.9-1.8-2.3-1.8-4.1c0-1.4,0.5-2.7,1.8-4.1c1.4-0.9,2.7-1.8,4.1-1.8
		c1.8,0,3.2,0.5,4.1,1.8c1.4,0.9,1.8,2.3,1.8,4.1c0,1.4-0.5,2.7-1.8,4.1C260,42.6,258.6,43,257.3,43z M251.4,87.7V48.4h10.8v39.2
		H251.4z"/>
	<path class="st1" d="M288.8,88.6c-4.1,0-7.7-0.9-10.4-2.7c-2.7-1.8-5-4.1-6.8-7.2c-1.4-3.2-2.3-6.8-2.3-10.4
		c0-4.1,0.9-7.7,2.3-10.8c1.4-3.2,3.6-5.4,6.8-7.2c2.7-1.8,6.3-2.7,10.4-2.7c3.6,0,6.3,0.5,9,1.8c2.7,1.4,4.5,3.2,6.3,5.4
		c1.4,2.3,2.3,5,2.7,8.1h-10.4c-0.5-1.8-0.9-3.6-2.3-5s-2.7-1.8-5-1.8c-1.8,0-3.2,0.5-4.5,1.4c-1.4,0.9-2.3,2.3-3.2,4.1
		c-0.9,1.8-0.9,4.1-0.9,6.3c0,2.7,0.5,4.5,0.9,6.3c0.9,1.8,1.8,3.2,3.2,4.1c1.4,0.9,2.7,1.4,4.5,1.4c1.4,0,2.3-0.5,3.2-0.9
		c0.9-0.5,1.8-1.4,2.7-2.3c0.5-0.9,0.9-2.3,1.4-3.6h10.4c0,3.2-0.9,5.9-2.3,8.1c-1.4,2.3-3.6,4.1-5.9,5.4
		C295.6,87.7,292.4,88.6,288.8,88.6z"/>
	<path class="st1" d="M342.5,50.2c0-2.3-0.9-3.6-2.7-5c-1.4-1.4-3.6-1.8-6.3-1.8c-1.8,0-3.2,0.5-4.5,0.9s-2.3,1.4-2.7,2.3
		c-0.5,0.9-0.9,1.8-0.9,3.2c0,0.9,0,1.8,0.5,2.3s0.9,1.4,1.8,1.8c0.9,0.5,1.8,0.9,2.7,1.4c0.9,0.5,2.3,0.9,3.2,0.9L338,57
		c2.3,0.5,4.5,1.4,6.3,2.3c1.8,0.9,3.6,1.8,5,3.2s2.7,2.7,3.2,4.5c0.9,1.8,1.4,3.6,1.4,5.9c0,3.2-0.9,5.9-2.3,8.1
		c-1.8,2.3-4.1,4.1-6.8,5.4c-3.2,1.4-6.8,1.8-10.8,1.8s-8.1-0.5-11.3-1.8c-3.2-1.4-5.4-3.2-7.2-5.9s-2.7-5.9-2.7-9.5h10.8
		c0,1.8,0.5,3.2,1.4,4.5c0.9,1.4,2.3,2.3,3.6,2.7s3.2,0.9,5,0.9s3.6-0.5,5-0.9c1.4-0.5,2.3-1.4,3.2-2.3c0.9-0.9,1.4-2.3,1.4-3.2
		c0-1.4-0.5-2.3-0.9-3.2c-0.9-0.9-1.8-1.4-3.2-2.3c-1.4-0.5-3.2-0.9-5-1.4l-5.9-1.4c-4.5-0.9-8.1-2.7-10.4-5s-4.1-5.4-3.6-9.5
		c0-3.2,0.9-5.9,2.7-8.1c1.8-2.3,4.1-4.1,7.2-5.4c3.2-1.4,6.3-1.8,10.4-1.8s7.2,0.5,10.4,1.8c2.7,1.4,5,3.2,6.8,5.4
		c1.8,2.3,2.3,5,2.7,8.1C354.2,50.2,342.5,50.2,342.5,50.2z"/>
	<path class="st1" d="M368.6,87.7l-10.8-39.2h10.8l6.3,26.6h0.5l6.3-26.6h10.8l6.3,26.2h0.5l5.9-26.2h11.3l-10.8,39.2h-11.7
		l-6.8-24.8h-0.5l-6.3,24.8H368.6z"/>
	<path class="st1" d="M433.6,88.6c-2.7,0-5-0.5-6.8-1.4c-1.8-0.9-3.6-2.3-4.5-4.1c-0.9-1.8-1.8-4.1-1.8-6.3c0-2.3,0.5-4.1,1.4-5.4
		c0.9-1.4,1.8-2.7,3.2-3.6c1.4-0.9,3.2-1.8,4.5-2.3c1.8-0.5,3.6-0.9,5.4-0.9c2.3-0.5,4.1-0.5,5.4-0.9c1.4,0,2.3-0.5,3.2-0.9
		c0.5-0.5,0.9-0.9,0.9-1.8l0,0c0-1.8-0.5-2.7-1.4-3.6c-0.9-0.9-2.3-1.4-4.5-1.4c-1.8,0-3.6,0.5-4.5,1.4c-1.4,0.9-1.8,1.8-2.3,3.2
		l-9.9-0.9c0.5-2.3,1.4-4.5,3.2-6.3c1.4-1.8,3.6-3.2,5.9-4.1c2.3-0.9,5-1.4,8.1-1.4c2.3,0,4.1,0.5,6.3,0.9c1.8,0.5,3.6,1.4,5.4,2.3
		c1.4,0.9,2.7,2.3,3.6,4.1c0.9,1.8,1.4,3.6,1.4,5.9v26.6h-10.4v-5.4h-0.5c-0.5,1.4-1.4,2.3-2.7,3.2c-0.9,0.9-2.3,1.8-3.6,2.3
		C437.2,88.1,435.4,88.6,433.6,88.6z M436.7,80.9c1.8,0,3.2-0.5,4.1-0.9s2.3-1.4,2.7-2.7c0.9-0.9,0.9-2.3,0.9-3.6v-4.1
		c-0.5,0-0.9,0.5-1.4,0.5s-1.4,0.5-1.8,0.5S439.9,71,439,71c-0.9,0-1.4,0-1.8,0.5c-1.4,0-2.3,0.5-3.2,0.9s-1.8,0.9-2.3,1.8
		c-0.5,0.9-0.9,1.4-0.9,2.7s0.5,2.7,1.8,3.6C433.6,80.4,434.9,80.9,436.7,80.9z"/>
	<path class="st1" d="M464.2,102.5V48.4H475v6.8h0.5c0.5-0.9,1.4-2.3,2.3-3.2c0.9-0.9,2.3-1.8,3.6-2.7c1.4-0.9,3.2-0.9,5.4-0.9
		c2.7,0,5.4,0.9,8.1,2.3c2.3,1.4,4.5,3.6,5.9,6.8c1.4,3.2,2.3,6.8,2.3,11.3s-0.9,8.1-2.3,11.3c-1.4,3.2-3.2,5.4-5.9,6.8
		c-2.3,1.4-5,2.3-8.1,2.3c-2.3,0-4.1-0.5-5.4-0.9c-1.4-0.9-2.7-1.8-3.6-2.7c-0.9-0.9-1.8-2.3-2.3-3.2H475v21.2h-10.8V102.5z
		 M474.6,67.8c0,2.3,0.5,4.5,0.9,6.3c0.5,1.8,1.8,3.2,2.7,4.1c1.4,0.9,2.7,1.4,4.5,1.4s3.2-0.5,4.5-1.4c1.4-0.9,2.3-2.3,2.7-4.1
		c0.5-1.8,0.9-3.6,0.9-5.9c0-2.3-0.5-4.1-0.9-5.9s-1.4-3.2-2.7-4.1c-1.4-0.9-2.7-1.4-4.5-1.4s-3.2,0.5-4.5,1.4
		c-1.4,0.9-2.3,2.3-2.7,4.1C475,63.8,474.6,65.6,474.6,67.8z"/>
</g>
</svg>
